<svg width="1440" height="480" viewBox="0 0 1440 480" fill="none" xmlns="http://www.w3.org/2000/svg">
<path d="M0 0H1440V480H0V0Z" fill="url(#paint0_linear_1_2)"/>
<mask id="mask0_1_2" style="mask-type:alpha" maskUnits="userSpaceOnUse" x="0" y="0" width="1440" height="480">
<path d="M0 0H1440V480H0V0Z" fill="#DD2679"/>
</mask>
<g mask="url(#mask0_1_2)">
<path d="M0 0H1440V244.74L0 509.3V0Z" fill="url(#paint1_radial_1_2)"/>
<g filter="url(#filter0_f_1_2)">
<path d="M-152 683.376L1462 497.236V158.565C1369.34 197.631 1143.23 285.76 980.042 325.746C776.05 375.728 466.7 277.488 316.508 256.805C196.355 240.259 -45.8945 303.915 -152 337.811V683.376Z" fill="url(#paint2_linear_1_2)"/>
</g>
</g>
<defs>
<filter id="filter0_f_1_2" x="-232" y="78.5647" width="1774" height="684.812" filterUnits="userSpaceOnUse" color-interpolation-filters="sRGB">
<feFlood flood-opacity="0" result="BackgroundImageFix"/>
<feBlend mode="normal" in="SourceGraphic" in2="BackgroundImageFix" result="shape"/>
<feGaussianBlur stdDeviation="40" result="effect1_foregroundBlur_1_2"/>
</filter>
<linearGradient id="paint0_linear_1_2" x1="1440" y1="240.431" x2="219.724" y2="557.767" gradientUnits="userSpaceOnUse">
<stop stop-color="#E73635"/>
<stop offset="1" stop-color="#6AD5FF"/>
</linearGradient>
<radialGradient id="paint1_radial_1_2" cx="0" cy="0" r="1" gradientUnits="userSpaceOnUse" gradientTransform="translate(1417 101.257) rotate(-175.825) scale(1390.69 2925.42)">
<stop stop-color="#8FB3FF"/>
<stop offset="0.277176" stop-color="#9D6BE8"/>
<stop offset="0.542906" stop-color="#DE2778"/>
<stop offset="1" stop-color="#B03DE2"/>
</radialGradient>
<linearGradient id="paint2_linear_1_2" x1="1408.2" y1="315.405" x2="-156.092" y2="761.88" gradientUnits="userSpaceOnUse">
<stop offset="0.0129279" stop-color="#E37777"/>
<stop offset="0.380614" stop-color="#F2554C"/>
<stop offset="0.61473" stop-color="#FEC458"/>
<stop offset="0.842802" stop-color="#FEC957"/>
<stop offset="1" stop-color="#DB788D"/>
</linearGradient>
</defs>
</svg>
